<svg xmlns="http://www.w3.org/2000/svg" viewBox="0 0 800 360">
  <defs>
    <linearGradient id="sky" x1="0" x2="0" y1="0" y2="1">
      <stop offset="0%" stop-color="#10142e"/>
      <stop offset="54%" stop-color="#2b1f44"/>
      <stop offset="100%" stop-color="#563725"/>
    </linearGradient>
  </defs>
  <rect width="800" height="360" fill="url(#sky)"/>
  <circle cx="118" cy="72" r="24" fill="#efe6c3"/>
  <circle cx="128" cy="66" r="19" fill="#10142e"/>
  <path d="M0 214 C104 188 202 192 286 214 S462 248 560 220 S724 190 800 210 V360 H0 Z" fill="#7d5c4d"/>
  <path d="M0 254 C116 232 208 236 300 258 S486 286 584 256 S726 228 800 248 V360 H0 Z" fill="#4b3025"/>
  <g fill="#2b1c1f">
    <rect x="110" y="138" width="22" height="94" rx="4"/>
    <rect x="132" y="138" width="22" height="94" rx="4"/>
    <rect x="610" y="124" width="24" height="110" rx="4"/>
    <rect x="636" y="124" width="24" height="110" rx="4"/>
  </g>
  <g fill="#8f7df3" opacity=".75">
    <circle cx="146" cy="132" r="10"/><circle cx="648" cy="118" r="10"/>
    <rect x="362" y="122" width="76" height="12" rx="6"/>
  </g>
  <path d="M352 134 L400 92 L448 134 Z" fill="#8f7df3" opacity=".62"/>
  <ellipse cx="190" cy="284" rx="122" ry="18" fill="#030306" opacity=".24"/>
  <ellipse cx="612" cy="252" rx="96" ry="18" fill="#030306" opacity=".22"/>
</svg>
