<svg xmlns="http://www.w3.org/2000/svg" viewBox="0 0 320 320">
  <defs>
    <linearGradient id="merchantCoat" x1="0" x2="1" y1="0" y2="1">
      <stop offset="0%" stop-color="#2fb9a4"/>
      <stop offset="100%" stop-color="#1a6f68"/>
    </linearGradient>
    <linearGradient id="merchantBag" x1="0" x2="1" y1="0" y2="1">
      <stop offset="0%" stop-color="#f0a95f"/>
      <stop offset="100%" stop-color="#a9642d"/>
    </linearGradient>
  </defs>
  <rect width="320" height="320" rx="36" fill="#161e21"/>
  <ellipse cx="160" cy="282" rx="86" ry="18" fill="#081011" opacity=".34"/>
  <path d="M112 258 L122 136 Q160 112 198 136 L208 258 Z" fill="url(#merchantCoat)"/>
  <rect x="145" y="154" width="30" height="78" rx="14" fill="#124d4d"/>
  <circle cx="160" cy="90" r="42" fill="#efbf98"/>
  <path d="M118 82 Q120 42 160 42 Q200 42 202 82 Q190 66 160 66 Q130 66 118 82 Z" fill="#7d4a2e"/>
  <path d="M126 78 Q140 58 160 58 Q180 58 194 78" fill="none" stroke="#f0d4aa" stroke-width="6" stroke-linecap="round"/>
  <circle cx="146" cy="94" r="4" fill="#1e242a"/>
  <circle cx="174" cy="94" r="4" fill="#1e242a"/>
  <path d="M149 112 Q160 120 171 112" fill="none" stroke="#9a5a4d" stroke-width="4" stroke-linecap="round"/>
  <path d="M122 154 L92 206 L120 216 L139 172 Z" fill="#efbf98"/>
  <path d="M198 154 L228 206 L200 216 L181 172 Z" fill="#efbf98"/>
  <path d="M198 178 Q246 164 258 204 Q264 230 242 242 Q222 252 194 238 Z" fill="url(#merchantBag)"/>
  <path d="M214 182 Q220 152 246 156" fill="none" stroke="#f2d39a" stroke-width="7" stroke-linecap="round"/>
  <rect x="212" y="198" width="24" height="18" rx="4" fill="#fff2c1"/>
  <circle cx="224" cy="207" r="5" fill="#f0a95f"/>
  <circle cx="92" cy="214" r="12" fill="#7df0d2" opacity=".8"/>
  <path d="M84 214 H100 M92 206 V222" stroke="#163f3c" stroke-width="4" stroke-linecap="round"/>
</svg>
