<svg xmlns="http://www.w3.org/2000/svg" viewBox="0 0 24 24">
  <!-- 에테르 — 시안색 PP 물방울 3개 -->
  <!-- 큰 물방울 (중앙) -->
  <path d="M12 3 Q9 8 9 12 A3 3 0 0 0 15 12 Q15 8 12 3 Z"
        fill="#0e1020" stroke="#30d0d8" stroke-width="1.2"/>
  <path d="M12 6 Q10.5 9.5 10.5 12 A1.5 1.5 0 0 0 13.5 12 Q13.5 9.5 12 6 Z"
        fill="#30d0d8" opacity="0.35"/>
  <!-- 작은 물방울 (좌) -->
  <path d="M7 10 Q5.5 13 5.5 15 A2 2 0 0 0 9 15 Q9 13 7 10 Z"
        fill="#0e1020" stroke="#30d0d8" stroke-width="1"/>
  <path d="M7 12 Q6.5 14 6.5 15 A1 1 0 0 0 8 15 Q8 14 7 12 Z"
        fill="#30d0d8" opacity="0.35"/>
  <!-- 작은 물방울 (우) -->
  <path d="M17 10 Q15.5 13 15.5 15 A2 2 0 0 0 19 15 Q19 13 17 10 Z"
        fill="#0e1020" stroke="#30d0d8" stroke-width="1"/>
  <path d="M17 12 Q16.5 14 16.5 15 A1 1 0 0 0 18 15 Q18 14 17 12 Z"
        fill="#30d0d8" opacity="0.35"/>
  <!-- 스파크 -->
  <circle cx="12" cy="19.5" r="0.8" fill="#60e8f0" opacity="0.7"/>
  <circle cx="7"  cy="18"   r="0.6" fill="#60e8f0" opacity="0.5"/>
  <circle cx="17" cy="18"   r="0.6" fill="#60e8f0" opacity="0.5"/>
</svg>
